<svg width="84" height="84" viewBox="0 0 84 84" fill="none"
    xmlns="http://www.w3.org/2000/svg">
    <path fill-rule="evenodd" clip-rule="evenodd" d="M41.6033 0C27.5624 0.000999869 13.8226 6.8921 5.74041 19.4924C2.89849 23.9239 1.00826 28.6822 0 33.5346L7.97312 34.8974C8.79852 31.0529 10.3139 27.2874 12.5638 23.7799C18.9023 13.8992 29.7578 7.99995 41.6033 7.99895C48.1024 7.99895 54.4541 9.83271 59.9732 13.3003C75.9639 23.3469 80.7132 44.3962 70.5619 60.2211C64.2234 70.1018 53.368 76.001 41.5225 76.001C35.0234 76.001 28.6717 74.1683 23.1526 70.7007C20.5855 69.088 18.3275 67.1792 16.3564 65.0665L10.2483 70.3118C12.7245 72.9924 15.5735 75.4131 18.8205 77.4539C25.8733 81.8853 33.7443 84 41.5225 84C55.5633 84 69.3031 77.1079 77.3854 64.5086C89.9452 44.9281 84.0896 18.9785 64.3053 6.54714C57.2525 2.11572 49.3814 0 41.6033 0Z" fill="#00A0DF"/>
</svg>
