<svg width="70" height="70" viewBox="0 0 70 70" fill="none" xmlns="http://www.w3.org/2000/svg">
    <circle cx="35" cy="35" r="35" fill="#F5F5F5"/>
    <path fill-rule="evenodd" clip-rule="evenodd" d="M34.6067 13.3708C27.2765 13.3708 21.3342 19.313 21.3342 26.6433C21.3342 33.9735 27.2765 39.9157 34.6067 39.9157C41.9368 39.9157 47.8792 33.9735 47.8792 26.6433C47.8792 19.313 41.9368 13.3708 34.6067 13.3708ZM44.1831 42.5702H46.5519C51.683 42.5702 55.8426 46.7298 55.8426 51.861V53.8518C55.8426 54.9514 54.9513 55.8427 53.8518 55.8427H15.3616C14.2621 55.8427 13.3707 54.9514 13.3707 53.8518V51.861C13.3707 46.7298 17.5303 42.5702 22.6615 42.5702H25.0303C30.9179 46.1119 38.2929 46.1134 44.1831 42.5702Z" fill="#DADADA"/>
</svg>
