<svg width="70" height="70" viewBox="0 0 70 70" fill="none"
    xmlns="http://www.w3.org/2000/svg">
    <circle cx="35" cy="35" r="35" fill="#002F87"/>
    <path fill-rule="evenodd" clip-rule="evenodd" d="M47.2375 30.7625L50.1188 27.8812C51.2938 26.7062 51.2938 24.8062 50.1188 23.6375L46.3625 19.8812C45.1875 18.7125 43.2875 18.7125 42.1187 19.8812L39.2375 22.7625C38.9437 23.0562 38.9437 23.5312 39.2375 23.825L46.175 30.7625C46.4688 31.0562 46.9438 31.0562 47.2375 30.7625ZM20.35 41.65L36.7625 25.2375C37.0563 24.9437 37.5313 24.9437 37.8313 25.2375L44.7688 32.175C45.0625 32.4687 45.0625 32.9437 44.7688 33.2375L28.3563 49.65L20.7625 50.9812C19.7375 51.1562 18.8438 50.2687 19.025 49.2437L20.35 41.65ZM26.7563 40.2437C26.4125 39.9 26.4125 39.35 26.7563 39.0062L36.3813 29.3812C36.725 29.0375 37.275 29.0375 37.6188 29.3812C37.9625 29.725 37.9625 30.275 37.6188 30.6187L27.9938 40.2437C27.65 40.5875 27.1 40.5875 26.7563 40.2437ZM27.5 45.5H24.5V42.5H22.2313L21.525 46.5312L23.4688 48.475L27.5 47.7687V45.5Z" fill="black"/>
    <mask id="mask0" mask-type="alpha" maskUnits="userSpaceOnUse" x="19" y="19" width="32" height="33">
        <path fill-rule="evenodd" clip-rule="evenodd" d="M47.2375 30.7625L50.1188 27.8812C51.2938 26.7062 51.2938 24.8062 50.1188 23.6375L46.3625 19.8812C45.1875 18.7125 43.2875 18.7125 42.1187 19.8812L39.2375 22.7625C38.9437 23.0562 38.9437 23.5312 39.2375 23.825L46.175 30.7625C46.4688 31.0562 46.9438 31.0562 47.2375 30.7625ZM20.35 41.65L36.7625 25.2375C37.0563 24.9437 37.5313 24.9437 37.8313 25.2375L44.7688 32.175C45.0625 32.4687 45.0625 32.9437 44.7688 33.2375L28.3563 49.65L20.7625 50.9812C19.7375 51.1562 18.8438 50.2687 19.025 49.2437L20.35 41.65ZM26.7563 40.2437C26.4125 39.9 26.4125 39.35 26.7563 39.0062L36.3813 29.3812C36.725 29.0375 37.275 29.0375 37.6188 29.3812C37.9625 29.725 37.9625 30.275 37.6188 30.6187L27.9938 40.2437C27.65 40.5875 27.1 40.5875 26.7563 40.2437ZM27.5 45.5H24.5V42.5H22.2313L21.525 46.5312L23.4688 48.475L27.5 47.7687V45.5Z" fill="white"/>
    </mask>
    <g mask="url(#mask0)">
        <path fill-rule="evenodd" clip-rule="evenodd" d="M19 19H51V51H19V19Z" fill="white"/>
    </g>
</svg>
